<svg viewBox="0 0 24 24" fill="none" xmlns="http://www.w3.org/2000/svg">
<path fill-rule="evenodd" clip-rule="evenodd" d="M9 12C10.9301 12 12.5 10.43 12.5 8.5C12.5 6.57001 10.9301 5 9 5C7.06995 5 5.5 6.57001 5.5 8.5C5.5 10.43 7.06995 12 9 12ZM9 7C9.82996 7 10.5 7.67001 10.5 8.5C10.5 9.32999 9.82996 10 9 10C8.17004 10 7.5 9.32999 7.5 8.5C7.5 7.67001 8.17004 7 9 7ZM4.77002 17H9.05005C9.02002 17.16 9 17.33 9 17.5V19H2V17.5C2 15.17 6.66003 14 9 14C9.56006 14 10.25 14.07 10.98 14.2C10.27 14.68 9.68005 15.28 9.33997 16.01C9.28491 16.01 9.22754 16.0075 9.16992 16.005C9.11255 16.0025 9.05493 16 9 16C7.46997 16 5.76001 16.5 4.77002 17ZM16.5 14.5C14.66 14.5 11 15.51 11 17.5V19H22V17.5C22 15.51 18.34 14.5 16.5 14.5ZM19 10.5C19 11.44 18.47 12.25 17.71 12.68C17.35 12.88 16.9399 13 16.5 13C16.0601 13 15.65 12.88 15.29 12.68C14.53 12.25 14 11.44 14 10.5C14 9.12 15.12 8 16.5 8C17.88 8 19 9.12 19 10.5Z" fill="white"/>
</svg>
