<svg viewBox="0 0 109 109" fill="none" xmlns="http://www.w3.org/2000/svg">
<path fill-rule="evenodd" clip-rule="evenodd" d="M27.2498 45.4167C22.254 45.4167 18.1665 49.5042 18.1665 54.5C18.1665 59.4958 22.254 63.5833 27.2498 63.5833C32.2457 63.5833 36.3332 59.4958 36.3332 54.5C36.3332 49.5042 32.2457 45.4167 27.2498 45.4167ZM89.5833 45.4167C84.5875 45.4167 80.5 49.5042 80.5 54.5C80.5 59.4958 84.5875 63.5833 89.5833 63.5833C94.5792 63.5833 98.6667 59.4958 98.6667 54.5C98.6667 49.5042 94.5792 45.4167 89.5833 45.4167ZM49.3333 54.5C49.3333 49.5042 53.4208 45.4167 58.4166 45.4167C63.4124 45.4167 67.4999 49.5042 67.4999 54.5C67.4999 59.4958 63.4124 63.5833 58.4166 63.5833C53.4208 63.5833 49.3333 59.4958 49.3333 54.5Z" fill="white"/>
</svg>
